PathFileType	4	(X/Y/Z)	..\data\SUBJ01\static\static.trc
DataRate	CameraRate	NumFrames	NumMarkers	Units	OrigDataRate	OrigDataStartFrame	OrigNumFrames
100.000000	100.000000	5	33	mm	100.000000	41	82
Frame#	Time	LFHD			RFHD			LBHD			RBHD			C7			T10			CLAV			STRN			LSHO			LELB			LWRA			LWRB			LFIN			RSHO			RELB			RWRA			RWRB			RFIN			LASI			RASI			SACR			LTHI			LKNE			LTIB			LANK			LHEE			LTOE			RTHI			RKNE			RTIB			RANK			RHEE			RTOE			
		X1	Y1	Z1	X2	Y2	Z2	X3	Y3	Z3	X4	Y4	Z4	X5	Y5	Z5	X6	Y6	Z6	X7	Y7	Z7	X8	Y8	Z8	X9	Y9	Z9	X10	Y10	Z10	X11	Y11	Z11	X12	Y12	Z12	X13	Y13	Z13	X14	Y14	Z14	X15	Y15	Z15	X16	Y16	Z16	X17	Y17	Z17	X18	Y18	Z18	X19	Y19	Z19	X20	Y20	Z20	X21	Y21	Z21	X22	Y22	Z22	X23	Y23	Z23	X24	Y24	Z24	X25	Y25	Z25	X26	Y26	Z26	X27	Y27	Z27	X28	Y28	Z28	X29	Y29	Z29	X30	Y30	Z30	X31	Y31	Z31	X32	Y32	Z32	X33	Y33	Z33	

42	0.41	-130.9558258056641	1571.806518554688	-206.1278686523438	-159.5380859375	1540.984008789063	-87.8518524169922	-270.5333862304688	1481.072021484375	-246.3553009033204	-297.6506347656251	1456.092407226563	-118.7503509521485	-316.9557495117188	1368.8583984375	-173.8533477783203	-369.2172851562501	1144.09912109375	-182.3050384521485	-164.2600708007813	1278.28564453125	-184.304931640625	-96.42883300781253	1125.49072265625	-181.3494110107422	-240.8218231201172	1316.249755859375	-351.1988220214844	-159.6256713867188	1092.2265625	-510.2623901367189	-49.97630310058595	881.2715454101565	-568.0692138671876	-49.44639205932619	915.6760864257815	-625.7919311523439	-20.50728797912598	812.5106201171877	-620.8676757812501	-230.7680664062501	1307.952026367188	-7.281901359558107	-201.1557312011719	1091.930908203125	177.0949401855469	-156.4295654296875	847.5794677734377	240.4948272705079	-156.054672241211	896.2044677734377	304.3627014160157	-126.4093780517578	789.5134277343752	292.3000793457032	-153.925048828125	885.4172363281252	-315.2459411621094	-157.9754486083985	888.7260742187502	-33.52350997924805	-330.4252014160157	886.248962402344	-172.8990173339844	-247.5989227294922	619.9494628906251	-383.6597290039063	-236.2139739990235	438.8727416992189	-301.9345703125001	-274.4180603027344	200.1152954101563	-331.8815917968751	-256.7412414550782	67.20214843750001	-270.2179260253907	-314.7931823730469	52.896785736084	-228.8880004882813	-148.2771759033203	49.16895294189455	-244.1990814208985	-220.4101715087891	600.0752563476564	12.29936885833741	-225.2058715820313	445.5775146484376	-52.22694396972658	-247.1073608398438	190.0290222167969	-27.90461158752442	-268.7164001464844	67.78089141845705	-85.49871063232423	-316.9511108398438	59.17151260375978	-142.7532806396485	-154.8475646972657	47.64107894897462	-95.69219207763673	
43	0.42	-130.8619995117188	1571.859130859375	-205.9746093750001	-159.6028900146485	1540.933837890625	-87.81214141845705	-270.5637512207032	1481.068115234375	-246.3208770751954	-297.6572570800782	1456.08984375	-118.7158508300782	-316.9735107421876	1368.854370117188	-173.8179168701172	-369.3140563964844	1144.087890625	-182.2496948242188	-164.2561645507813	1278.271850585938	-184.306640625	-96.50971221923831	1125.484375	-181.2764739990235	-241.1641235351563	1315.964111328125	-351.3457336425782	-159.6782684326172	1092.351440429688	-510.3226318359376	-49.93830871582033	881.4221191406252	-568.1054687500001	-49.53096008300783	915.7793579101565	-625.8933105468751	-20.50650787353516	812.5115966796877	-620.8987426757814	-230.8517456054688	1307.88232421875	-7.242372989654543	-201.2811126708985	1092.01513671875	177.2042999267578	-156.4575347900391	847.6707763671877	240.6236419677735	-156.056137084961	896.3608398437502	304.4787292480469	-126.3254776000977	789.6201171875002	292.4665222167969	-153.9300842285157	885.3936157226565	-315.2372741699219	-157.9518280029297	888.7084960937502	-33.5547218322754	-330.5025939941407	886.2659301757815	-172.9469604492188	-247.643051147461	619.8763427734376	-383.7912292480469	-236.2274017333985	438.7954101562501	-301.9396667480469	-274.4266357421876	200.0426940917969	-331.7897644042969	-256.7470397949219	67.15930938720705	-270.2039489746094	-314.7921142578126	52.89274215698244	-228.8927001953126	-148.2897491455078	49.14648437500001	-244.1930084228516	-220.4982604980469	600.1655273437501	12.27895164489746	-225.2160034179688	445.5805969238282	-52.24348449707033	-247.1132965087891	190.0052032470703	-27.90324783325196	-268.7362976074219	67.81349182128908	-85.48661041259767	-317.0187377929688	59.17266845703126	-142.8027496337891	-154.8091583251953	47.62950897216798	-95.75730895996095	
44	0.43	-130.9674072265625	1571.843994140625	-205.9501647949219	-159.4737548828125	1540.960571289063	-87.79749298095705	-270.5740661621094	1481.05126953125	-246.3540954589844	-297.5863647460938	1456.084594726563	-118.6869735717774	-316.9765319824219	1368.87158203125	-173.8089752197266	-369.3741455078126	1144.113159179688	-182.3526611328125	-164.3257293701172	1278.314697265625	-184.251693725586	-96.48381042480472	1125.59814453125	-181.2642517089844	-241.0134429931641	1316.2626953125	-351.2106628417969	-159.8221282958985	1092.381958007813	-510.4899291992189	-49.92764282226564	881.5098266601565	-568.2736816406251	-49.52428817749025	915.813415527344	-625.9409179687501	-20.55377578735352	812.6335449218752	-620.9102172851564	-230.9856719970704	1307.90673828125	-7.156678676605226	-201.3305664062501	1092.080932617188	177.327865600586	-156.4795227050782	847.7867431640627	240.8298492431641	-156.1250762939453	896.4449462890627	304.6225891113282	-126.3474578857422	789.8229980468752	292.5952148437501	-154.0022583007813	885.3772583007815	-315.2111816406251	-157.9639739990235	888.7588500976565	-33.6374626159668	-330.5036315917969	886.252380371094	-172.9530792236328	-247.6764373779297	619.9208984375001	-383.7438354492188	-236.2184600830079	438.8071594238282	-301.9470214843751	-274.4842529296876	200.0763702392579	-331.7870178222657	-256.7801208496094	67.21286773681642	-270.1600036621094	-314.8057861328126	52.92314910888673	-228.874984741211	-148.2913665771485	49.14445877075197	-244.191879272461	-220.3799591064454	599.9661865234376	12.21646499633789	-225.3072967529297	445.5840759277345	-52.26839447021486	-247.1192626953126	189.991683959961	-27.90280914306641	-268.7516479492188	67.75722503662111	-85.49780273437501	-317.1078796386719	59.19739913940431	-142.777572631836	-154.9127502441407	47.65836715698243	-95.69786834716798	
45	0.44	-130.9419708251953	1571.822509765625	-205.8437194824219	-159.4677124023438	1540.912475585938	-87.78003692626955	-270.6837463378907	1481.120971679688	-246.1307983398438	-297.6542053222657	1456.06884765625	-118.6239395141602	-317.0552673339844	1368.86865234375	-173.7720642089844	-369.3562011718751	1144.111694335938	-182.3824768066407	-164.3402557373047	1278.287109375	-184.2264862060547	-96.48203277587893	1125.535766601563	-181.2998504638672	-240.9501037597657	1316.3330078125	-351.1946411132813	-159.835205078125	1092.443725585938	-510.548553466797	-49.899959564209	881.6280517578127	-568.2935791015626	-49.52842712402345	915.8572998046877	-626.0803222656251	-20.51084709167481	812.7630004882815	-621.0045776367189	-230.9747467041016	1307.935668945313	-7.160298824310305	-201.3374633789063	1092.199462890625	177.4520721435547	-156.556381225586	847.9140625000002	240.8687286376954	-156.08154296875	896.592468261719	304.8387451171876	-126.2041473388672	789.945983886719	292.7648620605469	-154.0755767822266	885.3855590820315	-315.2590332031251	-157.9680938720703	888.763854980469	-33.64234161376954	-330.5011291503907	886.2520751953127	-172.97802734375	-247.8051452636719	619.8499145507814	-383.5664367675782	-236.2929687500001	438.8350219726564	-301.9445190429688	-274.5359802246094	200.0256347656251	-331.7838745117188	-256.8111267089844	67.2118377685547	-270.2134399414063	-314.7951049804688	52.90501785278322	-228.887680053711	-148.2908782958985	49.14513397216798	-244.1921386718751	-220.2876281738282	599.8897094726564	12.18556022644043	-225.2764892578126	445.616668701172	-52.21782684326173	-247.0782928466797	190.0437164306641	-27.93490791320801	-268.6961059570313	67.8339080810547	-85.50867462158205	-317.0497741699219	59.19670867919923	-142.7957916259766	-154.9541473388672	47.64813232421876	-95.6576614379883	
46	0.45	-131.0159912109375	1571.856201171875	-205.8883361816407	-159.474365234375	1540.871704101563	-87.65537261962892	-270.6456909179688	1481.068359375	-246.1942596435547	-297.6459655761719	1456.036376953125	-118.5179748535157	-317.0833435058594	1368.873901367188	-173.7726440429688	-369.3516845703126	1144.110107421875	-182.3819122314453	-164.3223876953125	1278.29833984375	-184.228759765625	-96.62573242187503	1125.4814453125	-181.3021240234375	-241.028060913086	1316.390258789063	-351.2477111816407	-159.9001617431641	1092.4716796875	-510.5929565429689	-49.98071670532228	881.6819458007815	-568.3360595703126	-49.6013526916504	915.9815063476565	-626.1029663085939	-20.58239555358887	812.7761840820315	-621.0462036132814	-231.0840301513672	1307.907470703125	-7.136614799499513	-201.3898315429688	1092.277099609375	177.5907745361328	-156.5635833740235	848.1279296875002	241.0502471923829	-156.0255279541016	896.7687988281252	305.0169372558594	-126.0958633422852	790.1777954101565	292.9370117187501	-154.0830688476563	885.397888183594	-315.2675781250001	-157.932113647461	888.6982421875002	-33.7656364440918	-330.5770263671876	886.2635498046877	-172.9434051513672	-247.7885437011719	619.8461914062501	-383.6944885253907	-236.3012084960938	438.7803344726564	-301.9613342285157	-274.4558715820313	200.0136871337891	-331.9389343261719	-256.7648010253907	67.17217254638673	-270.2136230468751	-314.7439880371094	52.85924911499025	-228.8208923339844	-148.3799133300782	49.10555267333986	-244.1593322753907	-220.3298034667969	599.8760375976564	12.18904399871827	-225.3438262939454	445.6153259277345	-52.28579711914064	-247.0570373535157	190.0378570556641	-27.94728088378907	-268.7049865722657	67.72860717773439	-85.49642181396486	-317.0850219726563	59.1468849182129	-142.8002014160157	-154.8354034423828	47.61371994018555	-95.74664306640626	
